<svg width="24" height="24" viewBox="0 0 24 24" fill="none" xmlns="http://www.w3.org/2000/svg">
<path d="M19.6698 4.68145C19.6636 4.66942 19.6535 4.65999 19.6411 4.65485C18.2115 3.99006 16.7028 3.51601 15.1529 3.24457C15.1388 3.24192 15.1243 3.24383 15.1113 3.25004C15.0984 3.25625 15.0877 3.26644 15.0808 3.27916C14.8753 3.65705 14.6889 4.04522 14.522 4.44216C12.8513 4.18512 11.1518 4.18512 9.48105 4.44216C9.31311 4.04421 9.12364 3.65595 8.91349 3.27916C8.90628 3.26672 8.89554 3.25676 8.88267 3.25059C8.8698 3.24442 8.8554 3.24233 8.84134 3.24457C7.29123 3.51544 5.78247 3.98953 4.35304 4.65489C4.3408 4.66015 4.33047 4.66912 4.32349 4.68058C1.4649 9.00719 0.681823 13.2274 1.06597 17.3954C1.06705 17.4056 1.07015 17.4155 1.07508 17.4245C1.08001 17.4335 1.08667 17.4413 1.09466 17.4477C2.75919 18.6968 4.62099 19.6502 6.6006 20.2673C6.61454 20.2716 6.62943 20.2714 6.64326 20.2668C6.65709 20.2622 6.6692 20.2534 6.67796 20.2416C7.10314 19.6553 7.47988 19.0344 7.80435 18.3853C7.80881 18.3764 7.81135 18.3667 7.81182 18.3567C7.81228 18.3467 7.81066 18.3367 7.80705 18.3274C7.80343 18.3181 7.79792 18.3097 7.79087 18.3028C7.78382 18.2958 7.77539 18.2904 7.76614 18.287C7.17205 18.0566 6.5969 17.7789 6.04609 17.4564C6.03608 17.4504 6.02768 17.4421 6.02162 17.432C6.01556 17.422 6.01203 17.4106 6.01135 17.3989C6.01066 17.3871 6.01284 17.3754 6.01769 17.3647C6.02254 17.354 6.02991 17.3447 6.03915 17.3376C6.15472 17.2498 6.27037 17.1585 6.38074 17.0663C6.39054 17.0582 6.40241 17.0529 6.41499 17.0512C6.42758 17.0495 6.44039 17.0513 6.45199 17.0566C10.0606 18.7258 13.9674 18.7258 17.5332 17.0566C17.5449 17.051 17.5578 17.0489 17.5706 17.0504C17.5833 17.052 17.5954 17.0572 17.6054 17.0655C17.7158 17.1577 17.8314 17.2498 17.9478 17.3376C17.9571 17.3446 17.9646 17.3539 17.9695 17.3645C17.9744 17.3752 17.9767 17.3869 17.9761 17.3986C17.9755 17.4104 17.972 17.4218 17.966 17.4319C17.9601 17.4419 17.9517 17.4504 17.9418 17.4564C17.3922 17.7816 16.8165 18.0591 16.2209 18.2861C16.2116 18.2897 16.2032 18.2952 16.1962 18.3022C16.1892 18.3093 16.1838 18.3178 16.1802 18.3272C16.1767 18.3366 16.1751 18.3466 16.1757 18.3566C16.1762 18.3666 16.1789 18.3764 16.1834 18.3853C16.5133 19.0308 16.8895 19.6509 17.3089 20.2406C17.3174 20.2527 17.3295 20.2618 17.3434 20.2666C17.3572 20.2713 17.3723 20.2716 17.3863 20.2672C19.3694 19.6522 21.2345 18.6987 22.9011 17.4477C22.9092 17.4417 22.916 17.434 22.9209 17.4251C22.9259 17.4162 22.9289 17.4064 22.9298 17.3963C23.3897 12.5777 22.1598 8.39202 19.6698 4.68145ZM8.34326 14.8575C7.25681 14.8575 6.36161 13.8471 6.36161 12.6061C6.36161 11.3651 7.23945 10.3545 8.34326 10.3545C9.4557 10.3545 10.3422 11.3738 10.3249 12.606C10.3249 13.8471 9.447 14.8575 8.34326 14.8575ZM15.67 14.8575C14.5836 14.8575 13.6884 13.8471 13.6884 12.6061C13.6884 11.3651 14.5662 10.3545 15.67 10.3545C16.7825 10.3545 17.669 11.3738 17.6517 12.606C17.6517 13.8471 16.7825 14.8575 15.67 14.8575Z" fill="#782CE8"/>
</svg>
