<svg width="24" height="24" viewBox="0 0 24 24" fill="none" xmlns="http://www.w3.org/2000/svg">
<path d="M16.17 10.0601H7.83001C6.65001 10.0601 6.24001 9.27007 6.93001 8.31007L11.1 2.47007C11.59 1.77007 12.41 1.77007 12.9 2.47007L17.07 8.31007C17.76 9.27007 17.35 10.0601 16.17 10.0601Z" fill="white"/>
<path d="M17.59 18.0001H6.41003C4.83003 18.0001 4.29003 16.9501 5.22003 15.6701L9.21003 10.0601H14.79L18.78 15.6701C19.71 16.9501 19.17 18.0001 17.59 18.0001Z" fill="white"/>
<path d="M12.75 18V22C12.75 22.41 12.41 22.75 12 22.75C11.59 22.75 11.25 22.41 11.25 22V18H12.75Z" fill="white"/>
</svg>
