<svg width="24" height="24" viewBox="0 0 24 24" fill="none" xmlns="http://www.w3.org/2000/svg">
<path d="M10.2516 20.8829C9.94221 20.9157 9.67971 20.9485 9.41721 20.9766C8.05315 21.1126 6.86252 20.7422 5.96252 19.6782C5.68127 19.3454 5.5219 18.9141 5.28284 18.5438C4.91252 17.9626 4.53284 17.386 4.12502 16.8282C3.9844 16.636 3.74065 16.5235 3.55315 16.3594C3.49221 16.3079 3.47346 16.2094 3.43127 16.1297C3.51565 16.0969 3.59534 16.0407 3.67971 16.0313C4.75784 15.9329 5.51721 16.4297 6.0469 17.3251C6.70783 18.4407 7.66408 19.0501 8.96252 19.0501C9.33752 19.0501 9.71252 18.9235 10.0828 18.8391C10.1531 18.8204 10.2375 18.7126 10.2469 18.6329C10.3125 18.1454 10.3735 17.6579 10.5985 17.2126C10.6828 17.0485 10.7813 16.8938 10.8797 16.7251C10.5 16.6501 10.1344 16.5938 9.77346 16.5047C8.1094 16.0829 6.73596 15.2485 5.93909 13.6641C5.62971 13.0454 5.45627 12.3797 5.43284 11.686C5.39534 10.6172 5.4094 9.5438 5.62502 8.48911C5.77971 7.74849 6.06096 7.05942 6.62346 6.52505C6.74534 6.40786 6.76877 6.30474 6.70315 6.12661C6.38909 5.25005 6.35627 4.35942 6.62346 3.46411C6.67971 3.27192 6.73127 3.07974 6.78752 2.87817C8.0719 3.12192 8.83596 3.98911 9.55315 4.95005C10.2938 4.40161 11.1703 4.35474 12.0235 4.29849C13.036 4.23286 14.0531 4.24692 15.061 4.41099C15.586 4.49536 15.9094 4.60317 16.4203 4.90786C16.861 4.45317 17.2735 3.9938 17.7281 3.57661C18.0891 3.2438 18.5391 3.03286 19.0266 2.92036C19.1625 2.88755 19.2328 2.90161 19.2891 3.05161C19.6688 4.08755 19.725 5.1188 19.3078 6.15474C19.2516 6.29536 19.2563 6.3938 19.3735 6.5063C20.0485 7.14849 20.3578 7.97817 20.461 8.87349C20.5547 9.70318 20.6063 10.5376 20.6063 11.3719C20.6063 12.5579 20.2547 13.6454 19.5094 14.5782C18.9844 15.2391 18.3047 15.7126 17.536 16.0688C16.7906 16.411 16.0125 16.6079 15.2063 16.711C15.1875 16.7157 15.1688 16.7297 15.136 16.7438C15.6891 17.536 15.7781 18.4266 15.7688 19.3501C15.7547 20.6954 15.7594 22.036 15.7688 23.3813C15.7688 23.5922 15.7078 23.6438 15.5016 23.6438C13.8375 23.6344 12.1735 23.6344 10.5094 23.6438C10.3031 23.6438 10.2375 23.5782 10.2375 23.3766C10.2469 22.6501 10.2422 21.9235 10.2422 21.1969C10.2516 21.0891 10.2516 20.9954 10.2516 20.8829Z" fill="#782CE8"/>
</svg>
