<svg width="24" height="24" viewBox="0 0 24 24" fill="none" xmlns="http://www.w3.org/2000/svg">
<g clip-path="url(#clip0_155_1270)">
<path d="M13.2869 11.9881C13.2869 15.4009 10.5391 18.1674 7.14974 18.1674C3.76034 18.1674 1.01233 15.4009 1.01233 11.9881C1.01233 8.57537 3.76013 5.80859 7.14974 5.80859C10.5394 5.80859 13.2869 8.57537 13.2869 11.9881Z" fill="#782CE8"/>
<path d="M20.0196 11.988C20.0196 15.2003 18.6457 17.8055 16.9509 17.8055C15.2561 17.8055 13.8822 15.2003 13.8822 11.988C13.8822 8.77559 15.2559 6.17041 16.9507 6.17041C18.6455 6.17041 20.0194 8.77475 20.0194 11.988" fill="#782CE8"/>
<path d="M22.7734 11.9882C22.7734 14.8657 22.2903 17.1998 21.6942 17.1998C21.098 17.1998 20.6151 14.8663 20.6151 11.9882C20.6151 9.1101 21.0982 6.77661 21.6942 6.77661C22.2901 6.77661 22.7734 9.10989 22.7734 11.9882Z" fill="#782CE8"/>
</g>
<defs>
<clipPath id="clip0_155_1270">
<rect width="24" height="24" fill="white"/>
</clipPath>
</defs>
</svg>
