<svg width="24" height="24" viewBox="0 0 24 24" fill="none" xmlns="http://www.w3.org/2000/svg">
<path d="M22.3677 6.37775C21.601 6.71854 20.776 6.94841 19.9103 7.05128C20.7942 6.52211 21.4719 5.68391 21.7915 4.684C20.9648 5.17464 20.0495 5.53067 19.0746 5.72286C18.2944 4.89143 17.1823 4.37158 15.9517 4.37158C13.5891 4.37158 11.6735 6.28716 11.6735 8.6502C11.6735 8.98506 11.7111 9.31145 11.7844 9.62514C8.22839 9.44649 5.07541 7.74342 2.96509 5.15475C2.59679 5.78636 2.38597 6.52126 2.38597 7.30612C2.38597 8.79033 3.1412 10.1001 4.28928 10.8672C3.58824 10.8448 2.92826 10.6521 2.35126 10.3317C2.35084 10.3495 2.35084 10.3677 2.35084 10.3859C2.35084 12.4585 3.82573 14.1874 5.78322 14.5811C5.42423 14.6785 5.0462 14.731 4.65588 14.731C4.37987 14.731 4.1119 14.7043 3.8507 14.6539C4.39553 16.3536 5.97541 17.591 7.84739 17.6253C6.38308 18.7729 4.53862 19.457 2.53372 19.457C2.1887 19.457 1.84792 19.4367 1.51306 19.3969C3.40705 20.6115 5.6558 21.3193 8.07176 21.3193C15.9419 21.3193 20.2451 14.8 20.2451 9.14593C20.2451 8.96051 20.2413 8.77551 20.2333 8.59178C21.0689 7.9898 21.7945 7.23585 22.3677 6.37775Z" fill="#782CE8"/>
</svg>
