<svg width="25" height="25" viewBox="0 0 25 25" fill="none" xmlns="http://www.w3.org/2000/svg">
<g clip-path="url(#clip0_155_1318)">
<path d="M24.8027 14.5598L24.4077 14.0107C24.5344 13.4538 24.4482 12.8962 24.1169 12.4622C23.9195 12.2038 23.6567 12.0179 23.3561 11.9044C23.4769 11.2423 23.3574 10.5874 22.9631 10.0711C22.7393 9.77801 22.4487 9.55902 22.117 9.4133C22.1968 8.66716 22.0089 7.90301 21.5287 7.27408C20.8609 6.39962 19.7921 6.00207 18.7369 6.12522L18.6439 5.99595C18.2167 5.40192 17.5297 5.04971 16.7979 5.04971H15.7478V3.6231C15.7478 3.04389 15.2782 2.5743 14.699 2.5743H14.4503L12.8872 6.80552C13.0443 6.92341 13.1464 7.11068 13.1464 7.32216V8.61485C13.1464 8.97189 12.8571 9.26119 12.5 9.26119C12.143 9.26119 11.8537 8.97189 11.8537 8.61485V7.32216C11.8537 7.11059 11.9557 6.92341 12.1128 6.80552L10.5497 2.57422H10.2709C9.69162 2.57422 9.22203 3.04381 9.22203 3.62302V5.04962H8.2021C7.47035 5.04962 6.78333 5.40175 6.35614 5.99587L6.261 6.12807C5.19677 5.99449 4.11497 6.39177 3.44122 7.27399C2.96095 7.90292 2.77316 8.66699 2.85288 9.41321C2.52117 9.55894 2.23066 9.77792 2.00677 10.071C1.61242 10.5873 1.49297 11.2422 1.61371 11.9043C1.31312 12.0179 1.05027 12.2037 0.852919 12.4621C0.515184 12.9044 0.431848 13.4751 0.569218 14.0425L0.197355 14.5598C-0.122197 15.0042 -0.0463589 15.6196 0.371695 15.9731L1.50409 16.9304C1.92033 17.2824 2.53669 17.2568 2.92242 16.8716L3.54731 16.2475C4.03629 16.2154 4.48028 16.0293 4.79871 15.6926C4.76295 15.9036 4.74399 16.1182 4.74399 16.336C4.74399 17.4416 5.21892 18.4695 6.03366 19.3264C6.14526 19.4676 6.26376 19.6059 6.39044 19.74C6.14707 19.932 5.99031 20.2289 5.99031 20.563V21.3767C5.99031 21.9559 6.4599 22.4255 7.03911 22.4255H17.961C18.5402 22.4255 19.0098 21.9559 19.0098 21.3767V20.563C19.0098 20.2289 18.8531 19.932 18.6097 19.74C18.7364 19.6059 18.8548 19.4677 18.9664 19.3265C19.7811 18.4695 20.256 17.4416 20.256 16.336C20.256 16.1309 20.2392 15.9287 20.2074 15.7295C20.5298 16.0497 20.9711 16.2238 21.454 16.2488L22.0775 16.8716C22.4632 17.2567 23.0796 17.2823 23.4959 16.9304L24.6283 15.9731C25.0464 15.6196 25.1223 15.0042 24.8027 14.5598ZM13.1464 20.7016C13.1464 21.0587 12.8571 21.348 12.5 21.348C12.143 21.348 11.8537 21.0587 11.8537 20.7016V19.4089C11.8537 19.0519 12.143 18.7626 12.5 18.7626C12.8571 18.7626 13.1464 19.0519 13.1464 19.4089V20.7016ZM13.1464 17.2502C13.1464 17.6072 12.8571 17.8965 12.5 17.8965C12.143 17.8965 11.8537 17.6072 11.8537 17.2502V15.0913C11.8537 14.7342 12.143 14.4449 12.5 14.4449C12.8571 14.4449 13.1464 14.7342 13.1464 15.0913V17.2502ZM13.1464 12.9325C13.1464 13.2895 12.8571 13.5788 12.5 13.5788C12.143 13.5788 11.8537 13.2895 11.8537 12.9325V10.7736C11.8537 10.4166 12.143 10.1273 12.5 10.1273C12.8571 10.1273 13.1464 10.4166 13.1464 10.7736V12.9325Z" fill="white"/>
</g>
<defs>
<clipPath id="clip0_155_1318">
<rect width="25" height="25" fill="white"/>
</clipPath>
</defs>
</svg>
